#Comment line ignore any data following # character 
#Hierarchical Translation and Rotation (.htr) file 
[Header]	
#Header keywords are followed by a single value 
FileType HTR		#Single word string
DataType HTRS		#Translation followed by rotation and scale data
FileVersion 1		#integer
NumSegments 84		#integer
NumFrames 2		#integer
DataFrameRate 30		#integer, data frame rate in this file
EulerRotationOrder ZYX
CalibrationUnits mm
RotationUnits Degrees
GlobalAxisofGravity Y
BoneLengthAxis Y
ScaleFactor 1.00
[SegmentNames&Hierarchy]
#CHILD	PARENT
MASTER GLOBAL
root MASTER
chest root
L_mid_tent01 root
R_mid_tent01 root
spine01 root
Bip01_Neck chest
L_humerus chest
R_humerus chest
weapon_bone chest
Bip01_Head Bip01_Neck
eye_left_bone Bip01_Head
eye_right_bone Bip01_Head
L_forearm L_humerus
L_front_hand L_forearm
L_weapon_bone L_forearm
L_front_hand01_01 L_front_hand
L_front_hand02_01 L_front_hand
L_front_hand03_01 L_front_hand
L_front_hand01_02 L_front_hand01_01
L_front_hand02_02 L_front_hand02_01
L_front_hand03_02 L_front_hand03_01
R_forearm R_humerus
R_front_hand R_forearm
R_weapon_bone R_forearm
R_front_hand01_01 R_front_hand
R_front_hand02_01 R_front_hand
R_front_hand03_01 R_front_hand
R_front_hand01_02 R_front_hand01_01
R_front_hand02_02 R_front_hand02_01
R_front_hand03_02 R_front_hand03_01
null_rope01_connect L_mid_tent01
Rope1_Seg01 null_rope01_connect
Rope1_Seg02 Rope1_Seg01
Rope1_Seg03 Rope1_Seg02
Rope1_Seg04 Rope1_Seg03
Rope1_Seg05 Rope1_Seg04
Rope1_Seg06 Rope1_Seg05
Rope1_Seg07 Rope1_Seg06
Rope1_Seg09 Rope1_Seg07
L_mid_hand01 Rope1_Seg09
L_mid_hand02 Rope1_Seg09
L_mid_hand03 Rope1_Seg09
null_rope02_connect R_mid_tent01
Rope2_Seg01 null_rope02_connect
Rope2_Seg02 Rope2_Seg01
Rope2_Seg03 Rope2_Seg02
Rope2_Seg04 Rope2_Seg03
Rope2_Seg05 Rope2_Seg04
Rope2_Seg06 Rope2_Seg05
Rope2_Seg07 Rope2_Seg06
Rope2_Seg09 Rope2_Seg07
R_mid_hand01 Rope2_Seg09
R_mid_hand02 Rope2_Seg09
R_mid_hand03 Rope2_Seg09
spine02 spine01
spine03 spine02
pelvis spine03
null_rope03_connect pelvis
null_rope04_connect pelvis
Rope3_Seg01 null_rope03_connect
Rope3_Seg02 Rope3_Seg01
Rope3_Seg03 Rope3_Seg02
Rope3_Seg04 Rope3_Seg03
Rope3_Seg05 Rope3_Seg04
Rope3_Seg06 Rope3_Seg05
Rope3_Seg07 Rope3_Seg06
Rope3_Seg08 Rope3_Seg07
Rope3_Seg09 Rope3_Seg08
R_rear_hand01 Rope3_Seg09
R_rear_hand02 Rope3_Seg09
R_rear_hand03 Rope3_Seg09
Rope4_Seg01 null_rope04_connect
Rope4_Seg02 Rope4_Seg01
Rope4_Seg03 Rope4_Seg02
Rope4_Seg04 Rope4_Seg03
Rope4_Seg05 Rope4_Seg04
Rope4_Seg06 Rope4_Seg05
Rope4_Seg07 Rope4_Seg06
Rope4_Seg08 Rope4_Seg07
Rope4_Seg09 Rope4_Seg08
L_rear_hand01 Rope4_Seg09
L_rear_hand02 Rope4_Seg09
L_rear_hand03 Rope4_Seg09
[BasePosition]
#SegmentName Tx, Ty, Tz, Rx, Ry, Rz, BoneLength
MASTER 0.000000 0.000000 0.000000 -90.000000 0.000000 0.000000 10.000000 
root 0.000000 0.000000 0.000000 0.000000 0.000000 0.000000 10.000000 
chest 0.000000 0.000000 0.000000 0.000000 0.000000 0.000000 10.000000 
L_mid_tent01 0.000000 0.000000 0.000000 0.000000 0.000000 0.000000 10.000000 
R_mid_tent01 0.000000 0.000000 0.000000 0.000000 0.000000 0.000000 10.000000 
spine01 0.000000 0.000000 0.000000 0.000000 0.000000 0.000000 10.000000 
Bip01_Neck 0.000000 0.000000 0.000000 0.000000 0.000000 0.000000 10.000000 
L_humerus 0.000000 0.000000 0.000000 0.000000 0.000000 0.000000 10.000000 
R_humerus 0.000000 0.000000 0.000000 0.000000 0.000000 0.000000 10.000000 
weapon_bone 0.000000 0.000000 0.000000 0.000000 0.000000 0.000000 10.000000 
Bip01_Head 0.000000 0.000000 0.000000 0.000000 0.000000 0.000000 10.000000 
eye_left_bone 0.000000 0.000000 0.000000 0.000000 0.000000 0.000000 10.000000 
eye_right_bone 0.000000 0.000000 0.000000 0.000000 0.000000 0.000000 10.000000 
L_forearm 0.000000 0.000000 0.000000 0.000000 0.000000 0.000000 10.000000 
L_front_hand 0.000000 0.000000 0.000000 0.000000 0.000000 0.000000 10.000000 
L_weapon_bone 0.000000 0.000000 0.000000 0.000000 0.000000 0.000000 10.000000 
L_front_hand01_01 0.000000 0.000000 0.000000 0.000000 0.000000 0.000000 10.000000 
L_front_hand02_01 0.000000 0.000000 0.000000 0.000000 0.000000 0.000000 10.000000 
L_front_hand03_01 0.000000 0.000000 0.000000 0.000000 0.000000 0.000000 10.000000 
L_front_hand01_02 0.000000 0.000000 0.000000 0.000000 0.000000 0.000000 10.000000 
L_front_hand02_02 0.000000 0.000000 0.000000 0.000000 0.000000 0.000000 10.000000 
L_front_hand03_02 0.000000 0.000000 0.000000 0.000000 0.000000 0.000000 10.000000 
R_forearm 0.000000 0.000000 0.000000 0.000000 0.000000 0.000000 10.000000 
R_front_hand 0.000000 0.000000 0.000000 0.000000 0.000000 0.000000 10.000000 
R_weapon_bone 0.000000 0.000000 0.000000 0.000000 0.000000 0.000000 10.000000 
R_front_hand01_01 0.000000 0.000000 0.000000 0.000000 0.000000 0.000000 10.000000 
R_front_hand02_01 0.000000 0.000000 0.000000 0.000000 0.000000 0.000000 10.000000 
R_front_hand03_01 0.000000 0.000000 0.000000 0.000000 0.000000 0.000000 10.000000 
R_front_hand01_02 0.000000 0.000000 0.000000 0.000000 0.000000 0.000000 10.000000 
R_front_hand02_02 0.000000 0.000000 0.000000 0.000000 0.000000 0.000000 10.000000 
R_front_hand03_02 0.000000 0.000000 0.000000 0.000000 0.000000 0.000000 10.000000 
null_rope01_connect 0.000000 0.000000 0.000000 0.000000 0.000000 0.000000 10.000000 
Rope1_Seg01 0.000000 0.000000 0.000000 0.000000 0.000000 0.000000 10.000000 
Rope1_Seg02 0.000000 0.000000 0.000000 0.000000 0.000000 0.000000 10.000000 
Rope1_Seg03 0.000000 0.000000 0.000000 0.000000 0.000000 0.000000 10.000000 
Rope1_Seg04 0.000000 0.000000 0.000000 0.000000 0.000000 0.000000 10.000000 
Rope1_Seg05 0.000000 0.000000 0.000000 0.000000 0.000000 0.000000 10.000000 
Rope1_Seg06 0.000000 0.000000 0.000000 0.000000 0.000000 0.000000 10.000000 
Rope1_Seg07 0.000000 0.000000 0.000000 0.000000 0.000000 0.000000 10.000000 
Rope1_Seg09 0.000000 0.000000 0.000000 0.000000 0.000000 0.000000 10.000000 
L_mid_hand01 0.000000 0.000000 0.000000 0.000000 0.000000 0.000000 10.000000 
L_mid_hand02 0.000000 0.000000 0.000000 0.000000 0.000000 0.000000 10.000000 
L_mid_hand03 0.000000 0.000000 0.000000 0.000000 0.000000 0.000000 10.000000 
null_rope02_connect 0.000000 0.000000 0.000000 0.000000 0.000000 0.000000 10.000000 
Rope2_Seg01 0.000000 0.000000 0.000000 0.000000 0.000000 0.000000 10.000000 
Rope2_Seg02 0.000000 0.000000 0.000000 0.000000 0.000000 0.000000 10.000000 
Rope2_Seg03 0.000000 0.000000 0.000000 0.000000 0.000000 0.000000 10.000000 
Rope2_Seg04 0.000000 0.000000 0.000000 0.000000 0.000000 0.000000 10.000000 
Rope2_Seg05 0.000000 0.000000 0.000000 0.000000 0.000000 0.000000 10.000000 
Rope2_Seg06 0.000000 0.000000 0.000000 0.000000 0.000000 0.000000 10.000000 
Rope2_Seg07 0.000000 0.000000 0.000000 0.000000 0.000000 0.000000 10.000000 
Rope2_Seg09 0.000000 0.000000 0.000000 0.000000 0.000000 0.000000 10.000000 
R_mid_hand01 0.000000 0.000000 0.000000 0.000000 0.000000 0.000000 10.000000 
R_mid_hand02 0.000000 0.000000 0.000000 0.000000 0.000000 0.000000 10.000000 
R_mid_hand03 0.000000 0.000000 0.000000 0.000000 0.000000 0.000000 10.000000 
spine02 0.000000 0.000000 0.000000 0.000000 0.000000 0.000000 10.000000 
spine03 0.000000 0.000000 0.000000 0.000000 0.000000 0.000000 10.000000 
pelvis 0.000000 0.000000 0.000000 0.000000 0.000000 0.000000 10.000000 
null_rope03_connect 0.000000 0.000000 0.000000 0.000000 0.000000 0.000000 10.000000 
null_rope04_connect 0.000000 0.000000 0.000000 0.000000 0.000000 0.000000 10.000000 
Rope3_Seg01 0.000000 0.000000 0.000000 0.000000 0.000000 0.000000 10.000000 
Rope3_Seg02 0.000000 0.000000 0.000000 0.000000 0.000000 0.000000 10.000000 
Rope3_Seg03 0.000000 0.000000 0.000000 0.000000 0.000000 0.000000 10.000000 
Rope3_Seg04 0.000000 0.000000 0.000000 0.000000 0.000000 0.000000 10.000000 
Rope3_Seg05 0.000000 0.000000 0.000000 0.000000 0.000000 0.000000 10.000000 
Rope3_Seg06 0.000000 0.000000 0.000000 0.000000 0.000000 0.000000 10.000000 
Rope3_Seg07 0.000000 0.000000 0.000000 0.000000 0.000000 0.000000 10.000000 
Rope3_Seg08 0.000000 0.000000 0.000000 0.000000 0.000000 0.000000 10.000000 
Rope3_Seg09 0.000000 0.000000 0.000000 0.000000 0.000000 0.000000 10.000000 
R_rear_hand01 0.000000 0.000000 0.000000 0.000000 0.000000 0.000000 10.000000 
R_rear_hand02 0.000000 0.000000 0.000000 0.000000 0.000000 0.000000 10.000000 
R_rear_hand03 0.000000 0.000000 0.000000 0.000000 0.000000 0.000000 10.000000 
Rope4_Seg01 0.000000 0.000000 0.000000 0.000000 0.000000 0.000000 10.000000 
Rope4_Seg02 0.000000 0.000000 0.000000 0.000000 0.000000 0.000000 10.000000 
Rope4_Seg03 0.000000 0.000000 0.000000 0.000000 0.000000 0.000000 10.000000 
Rope4_Seg04 0.000000 0.000000 0.000000 0.000000 0.000000 0.000000 10.000000 
Rope4_Seg05 0.000000 0.000000 0.000000 0.000000 0.000000 0.000000 10.000000 
Rope4_Seg06 0.000000 0.000000 0.000000 0.000000 0.000000 0.000000 10.000000 
Rope4_Seg07 0.000000 0.000000 0.000000 0.000000 0.000000 0.000000 10.000000 
Rope4_Seg08 0.000000 0.000000 0.000000 0.000000 0.000000 0.000000 10.000000 
Rope4_Seg09 0.000000 0.000000 0.000000 0.000000 0.000000 0.000000 10.000000 
L_rear_hand01 0.000000 0.000000 0.000000 0.000000 0.000000 0.000000 10.000000 
L_rear_hand02 0.000000 0.000000 0.000000 0.000000 0.000000 0.000000 10.000000 
L_rear_hand03 0.000000 0.000000 0.000000 0.000000 0.000000 0.000000 10.000000 
#Beginning of Data. Separated by tabs
#Fr	Tx	Ty	Tz	Rx	Ry	Rz	SF
[MASTER]
23 -1402.258057 3886.366211 -1553.618896 0.001660 0.001660 0.001660 4414.057129
24 -1378.487061 3999.999512 -1600.438965 0.001660 0.001660 0.001660 4523.453125
[root]
23 -14.686870 4.279426 1432.328979 -92.101181 -12.960098 -89.382805 1432.410645
24 -16.499939 9.359740 1448.320068 -91.728912 -11.584503 -89.471642 1448.444214
[chest]
23 -84.512650 -34.090519 0.000000 -3.413618 -0.874966 170.215347 91.129311
24 -84.512650 -34.090519 0.000000 -2.170494 -0.006436 168.239609 91.129311
[L_mid_tent01]
23 27.299183 22.179117 -249.918823 -15.404768 26.110910 36.931580 252.381805
24 27.299194 22.179106 -249.918823 -20.661398 12.026046 12.983024 252.381805
[R_mid_tent01]
23 23.228794 24.509907 226.238495 -174.290741 -25.844809 40.110058 228.744751
24 23.228794 24.509907 226.238495 -165.192215 -17.956036 24.056789 228.744751
[spine01]
23 -0.361383 -0.195265 0.000000 0.001926 0.001342 20.245646 0.410763
24 -0.361383 -0.195265 0.000000 0.001947 0.001312 22.051847 0.410763
[Bip01_Neck]
23 165.484543 71.581718 0.000119 176.643677 -1.657967 43.431911 180.302734
24 165.484543 71.581718 0.000119 176.643677 -1.657967 43.431919 180.302734
[L_humerus]
23 -13.983130 -135.272980 -120.471481 14.404200 77.493011 100.918549 181.680161
24 -13.983130 -135.272980 -120.471481 -5.480137 68.873428 84.573517 181.680161
[R_humerus]
23 -13.983309 -135.273102 125.287651 24.493193 -79.625290 66.547211 184.909012
24 -13.983309 -135.273102 125.287651 29.592966 -69.586304 66.126846 184.909012
[weapon_bone]
23 235.964890 -300.705902 0.000000 0.000000 -89.951546 -128.212341 382.234833
24 235.964890 -300.705902 0.000000 0.000000 -89.951546 -128.212341 382.234833
[Bip01_Head]
23 213.443588 185.717163 11.757354 4.418023 2.850242 -43.901562 283.173553
24 213.444199 185.715332 11.776886 4.962491 2.797846 -43.898750 283.173615
[eye_left_bone]
23 -24.626970 125.451866 -64.772606 0.000000 -90.000000 -99.840431 143.318359
24 -24.626970 125.451866 -64.772606 0.000000 -90.000000 -99.840431 143.318359
[eye_right_bone]
23 -24.626970 125.451866 64.327362 0.000000 -89.965736 80.156380 143.117676
24 -24.626970 125.451866 64.327362 0.000000 -90.000000 80.156387 143.117676
[L_forearm]
23 322.776093 0.000000 -0.000119 0.000396 -0.002314 -109.426048 322.776093
24 322.776093 0.000000 -0.000119 0.000396 -0.002314 -109.419975 322.776093
[L_front_hand]
23 241.149185 -0.042021 -3.300071 -178.667953 -1.835447 -27.422350 241.171753
24 241.149185 -0.042021 -3.300071 -178.667953 -1.835448 -27.422352 241.171753
[L_weapon_bone]
23 156.183838 0.000000 0.000000 0.000014 0.000007 0.000001 156.183838
24 156.183838 0.000000 0.000000 0.000014 0.000007 0.000001 156.183838
[L_front_hand01_01]
23 86.095154 20.947098 -0.655860 -0.366594 -0.477154 75.385574 88.609184
24 86.095154 20.947098 -0.655860 -0.366594 -0.477154 75.385582 88.609184
[L_front_hand02_01]
23 86.935165 -11.437475 24.513514 154.399796 -59.883835 -61.369587 91.046425
24 86.935165 -11.437475 24.513514 154.399826 -59.883846 -61.369614 91.046425
[L_front_hand03_01]
23 86.637497 -14.123976 -20.424902 -153.913849 58.118122 -62.702866 90.126129
24 86.637497 -14.123976 -20.424902 -153.913864 58.118141 -62.702885 90.126129
[L_front_hand01_02]
23 71.020905 -0.000179 0.000030 0.000334 -0.002323 -106.378746 71.020905
24 71.020905 -0.000179 0.000030 0.000334 -0.002323 -106.379700 71.020905
[L_front_hand02_02]
23 71.020927 -0.000119 0.000060 0.000334 -0.002323 -106.378746 71.020927
24 71.020927 -0.000119 0.000060 0.000334 -0.002323 -106.379700 71.020927
[L_front_hand03_02]
23 71.020905 -0.000060 0.000060 0.000334 -0.002323 -106.378746 71.020905
24 71.020905 -0.000060 0.000060 0.000334 -0.002323 -106.379700 71.020905
[R_forearm]
23 322.776428 -0.000060 0.000030 0.202094 0.065185 -108.078087 322.776428
24 322.776428 -0.000060 0.000030 0.202103 0.065158 -108.062820 322.776428
[R_front_hand]
23 238.847015 -0.006795 2.210259 -2.635298 -10.645461 -26.312506 238.857239
24 238.847015 -0.006795 2.210259 -2.635299 -10.645463 -26.312508 238.857239
[R_weapon_bone]
23 155.664093 0.002503 -0.000030 0.003487 0.001180 -90.988930 155.664078
24 155.664093 0.002503 -0.000030 0.003487 0.001180 -90.988930 155.664078
[R_front_hand01_01]
23 87.624611 14.231146 22.918642 -154.633484 -59.950607 61.746033 91.683487
24 87.624611 14.231146 22.918642 -154.633499 -59.950634 61.746063 91.683487
[R_front_hand02_01]
23 89.356956 14.367283 -19.491137 154.602661 58.302849 63.744389 92.579636
24 89.356956 14.367283 -19.491137 154.602676 58.302864 63.744400 92.579636
[R_front_hand03_01]
23 87.286232 -22.307278 -0.143439 0.162155 -0.423168 -75.767921 90.091743
24 87.286232 -22.307278 -0.143439 0.162155 -0.423168 -75.767921 90.091743
[R_front_hand01_02]
23 71.020905 0.000060 0.000119 0.002323 -0.000334 106.381714 71.020905
24 71.020905 0.000060 0.000119 0.002323 -0.000334 106.381729 71.020905
[R_front_hand02_02]
23 71.020844 -0.000030 -0.000119 0.002323 -0.000334 106.381714 71.020836
24 71.020844 -0.000030 -0.000119 0.002323 -0.000334 106.381729 71.020836
[R_front_hand03_02]
23 71.020905 0.000000 0.000030 0.002323 -0.000334 106.381714 71.020905
24 71.020905 0.000000 0.000030 0.002323 -0.000334 106.381729 71.020905
[null_rope01_connect]
23 328.732483 0.000000 -0.000238 -148.080521 -58.327583 -149.131516 328.732483
24 328.732483 0.000000 -0.000238 -154.483353 -64.791336 -118.914322 328.732483
[Rope1_Seg01]
23 0.000071 -0.000039 0.000146 57.075684 -12.932299 -118.121498 0.000167
24 0.000076 -0.000038 0.000153 27.987173 0.480705 -129.923615 0.000175
[Rope1_Seg02]
23 139.999863 -0.000179 0.000000 -2.726599 2.920686 -4.463381 139.999863
24 139.999863 -0.000179 0.000000 7.288911 2.977788 2.228962 139.999863
[Rope1_Seg03]
23 139.999924 0.000060 -0.000060 -4.229397 3.539047 -6.648633 139.999924
24 139.999924 0.000060 -0.000060 6.457853 3.561345 1.278095 139.999924
[Rope1_Seg04]
23 139.999924 -0.000060 -0.000119 -9.364118 4.455576 -14.782915 139.999924
24 139.999924 -0.000060 -0.000119 -0.280053 2.927648 -3.469147 139.999924
[Rope1_Seg05]
23 139.999832 0.000119 -0.000060 23.387300 5.651354 16.176964 139.999832
24 139.999832 0.000119 -0.000060 30.515896 10.197535 15.856552 139.999832
[Rope1_Seg06]
23 139.999954 0.000119 -0.000060 23.415411 7.294939 12.544279 139.999954
24 139.999954 0.000119 -0.000060 20.025650 11.842921 7.988775 139.999954
[Rope1_Seg07]
23 139.999985 0.000060 0.000000 7.289423 4.159768 2.359564 139.999985
24 139.999985 0.000060 0.000000 5.469993 5.224871 0.984998 139.999985
[Rope1_Seg09]
23 121.602913 0.000119 -0.000089 -89.793175 -1.359789 0.847147 121.602913
24 121.602913 0.000119 -0.000089 -89.793175 -1.359789 0.847147 121.602913
[L_mid_hand01]
23 103.859421 1.038730 8.195221 130.544373 -67.584534 -38.866943 104.187431
24 103.859421 1.038730 8.195221 130.544373 -67.584534 -38.866943 104.187431
[L_mid_hand02]
23 105.572853 -4.139662 -10.864139 -168.923172 43.409309 -73.498886 106.211075
24 105.572853 -4.139662 -10.864139 -168.923172 43.409321 -73.498909 106.211075
[L_mid_hand03]
23 104.641464 17.579376 -3.913581 -6.012627 17.808174 74.893669 106.179977
24 104.641464 17.579376 -3.913581 -6.012628 17.808178 74.893677 106.179977
[null_rope02_connect]
23 328.732849 0.000179 -0.000119 -126.542358 64.732323 -7.705928 328.732849
24 328.732849 0.000179 -0.000119 -140.208801 68.099243 -35.150642 328.732849
[Rope2_Seg01]
23 0.000002 0.000299 0.000000 -56.499390 -16.506479 -68.974533 0.000299
24 0.000000 0.000305 0.000000 9.019984 3.482419 -48.830894 0.000305
[Rope2_Seg02]
23 139.999741 -0.000060 -0.000119 13.085881 9.331017 4.416008 139.999756
24 139.999741 -0.000060 -0.000119 -25.366959 -1.465057 -15.132649 139.999756
[Rope2_Seg03]
23 140.000107 0.000030 0.000000 11.243154 6.053005 5.944696 140.000107
24 140.000107 0.000030 0.000000 -7.884581 4.044736 -8.190501 140.000107
[Rope2_Seg04]
23 139.999802 0.000000 -0.000060 -1.807411 8.357886 -5.324707 139.999802
24 139.999802 0.000000 -0.000060 -8.780729 3.900423 -11.058825 139.999802
[Rope2_Seg05]
23 139.999985 -0.000060 0.000119 -5.749411 6.514000 -10.606578 139.999985
24 139.999985 -0.000060 0.000119 -4.985912 3.130557 -8.034755 139.999985
[Rope2_Seg06]
23 139.999893 -0.000030 -0.000119 -1.350838 3.446112 -3.815193 139.999893
24 139.999893 -0.000030 -0.000119 -1.730310 1.933106 -3.510726 139.999893
[Rope2_Seg07]
23 139.999893 0.000060 -0.000060 -0.616315 2.127387 -2.107261 139.999893
24 139.999893 0.000060 -0.000060 -0.957423 1.284703 -2.150891 139.999893
[Rope2_Seg09]
23 121.338966 0.000089 -0.000060 33.793236 -1.359788 -0.847141 121.338966
24 121.338966 0.000089 -0.000060 33.793236 -1.359788 -0.847141 121.338966
[R_mid_hand01]
23 104.680779 11.144459 -10.335981 -16.212063 45.237247 70.462852 105.778534
24 104.680779 11.144459 -10.335981 -16.212065 45.237255 70.462868 105.778534
[R_mid_hand02]
23 104.070427 2.443552 8.231699 49.067368 -67.749771 39.286453 104.424065
24 104.070427 2.443552 8.231699 49.067390 -67.749802 39.286472 104.424065
[R_mid_hand03]
23 106.028137 -11.221827 -5.996406 -177.101105 15.551026 -76.585571 106.788818
24 106.028137 -11.221827 -5.996406 -177.101105 15.551029 -76.585594 106.788818
[spine02]
23 129.756927 0.001550 0.000119 0.360413 -4.044766 -12.925030 129.756927
24 129.756927 0.001550 0.000119 0.360061 -4.044798 -12.915060 129.756927
[spine03]
23 78.613609 0.081602 -4.898842 1.901237 3.828864 16.545292 78.766144
24 78.613586 0.081635 -4.898834 1.896495 3.831288 16.473051 78.766113
[pelvis]
23 169.435242 0.051022 0.000000 -0.042010 -0.183631 8.664918 169.435257
24 169.435242 0.051022 0.000000 -0.060465 -0.180225 14.087932 169.435257
[null_rope03_connect]
23 -1.257226 -2.466202 137.391083 163.336823 -89.030449 -92.885864 137.418976
24 -1.257226 -2.466202 137.391083 156.330505 -89.382614 -94.432030 137.418976
[null_rope04_connect]
23 -1.259640 -2.480268 -137.844437 163.336823 -89.030449 -92.885864 137.872513
24 -1.259640 -2.480268 -137.844437 156.330505 -89.382614 -94.432030 137.872513
[Rope3_Seg01]
23 0.000000 0.000000 0.000000 9.193404 30.642063 -97.191963 0.000000
24 0.000000 0.000000 0.000000 9.405818 30.680082 -96.804649 0.000000
[Rope3_Seg02]
23 139.999924 -0.000119 0.000060 0.486958 -2.556435 4.429333 139.999924
24 139.999924 -0.000119 0.000060 0.434183 -2.162979 4.357422 139.999924
[Rope3_Seg03]
23 139.999924 -0.000119 0.000119 0.291266 -3.217231 5.735164 139.999924
24 139.999924 -0.000119 0.000119 0.233808 -2.728586 5.638065 139.999924
[Rope3_Seg04]
23 139.999924 0.000119 0.000000 -0.971253 -6.642535 12.507608 139.999924
24 139.999924 0.000119 0.000000 -1.003537 -5.757974 12.217594 139.999924
[Rope3_Seg05]
23 139.999924 -0.000238 0.000060 0.222026 0.528959 -1.550328 139.999924
24 139.999924 -0.000238 0.000060 0.281009 0.976208 -2.048594 139.999924
[Rope3_Seg06]
23 139.999893 -0.000119 -0.000060 0.035611 5.196276 -10.397717 139.999893
24 139.999893 -0.000119 -0.000060 0.192689 4.821715 -10.190943 139.999893
[Rope3_Seg07]
23 139.999771 0.000060 -0.000119 0.249335 1.721634 -3.605956 139.999771
24 139.999771 0.000060 -0.000119 0.298052 1.628869 -3.516356 139.999771
[Rope3_Seg08]
23 139.999985 -0.000060 0.000000 0.339398 0.997252 -2.117300 139.999985
24 139.999985 -0.000060 0.000000 0.370265 0.948244 -2.082554 139.999985
[Rope3_Seg09]
23 90.185997 -0.000179 -0.000060 89.793228 -1.359877 -0.847183 90.185997
24 90.185997 -0.000179 -0.000060 89.793228 -1.359877 -0.847183 90.185997
[R_rear_hand01]
23 103.366196 -6.073594 -10.757982 -177.714203 24.565960 -73.910950 104.101845
24 103.366196 -6.073594 -10.757982 -177.714203 24.565968 -73.910957 104.101845
[R_rear_hand02]
23 100.509819 12.039542 -7.992327 -12.874829 36.868488 72.167213 101.543350
24 100.509819 12.039542 -7.992327 -12.874833 36.868492 72.167229 101.543350
[R_rear_hand03]
23 101.539970 5.215704 5.435467 71.484581 -71.816628 21.513813 101.819031
24 101.539970 5.215704 5.435467 71.484634 -71.816643 21.513817 101.819031
[Rope4_Seg01]
23 -0.000037 -0.000294 0.000000 -104.553940 18.819252 -120.886429 0.000296
24 -0.000038 -0.000305 0.000000 -104.866310 19.032187 -121.749886 0.000308
[Rope4_Seg02]
23 139.999985 0.000060 0.000119 -1.082750 -3.183670 1.629954 139.999985
24 139.999985 0.000060 0.000119 -1.220884 -4.331901 1.438683 139.999985
[Rope4_Seg03]
23 139.999924 0.000000 -0.000238 -1.043279 -3.608748 1.751673 139.999924
24 139.999924 0.000000 -0.000238 -1.086741 -4.862685 1.498302 139.999924
[Rope4_Seg04]
23 139.999985 0.000000 0.000119 -0.995150 -9.143312 0.552608 139.999985
24 139.999985 0.000000 0.000119 -0.887298 -11.067567 0.251611 139.999985
[Rope4_Seg05]
23 139.999802 -0.000060 -0.000119 -0.528755 -0.878416 3.354559 139.999802
24 139.999802 -0.000060 -0.000119 -0.308409 -2.722254 2.636129 139.999802
[Rope4_Seg06]
23 139.999924 0.000000 0.000060 0.498181 10.176470 4.903542 139.999924
24 139.999924 0.000000 0.000060 0.642697 11.075511 4.711227 139.999924
[Rope4_Seg07]
23 139.999802 0.000000 0.000000 0.136738 4.645103 2.353557 139.999802
24 139.999802 0.000000 0.000000 0.331218 5.760139 2.415252 139.999802
[Rope4_Seg08]
23 139.999924 0.000000 0.000119 -1.580543 1.962269 1.201442 139.999924
24 139.999924 0.000000 0.000119 -1.494084 2.242978 1.174564 139.999924
[Rope4_Seg09]
23 90.185791 0.000060 0.000060 -135.617828 2.228885 0.850567 90.185791
24 90.185791 0.000060 0.000060 -135.617828 2.228885 0.850567 90.185791
[L_rear_hand01]
23 101.696655 -8.392275 -7.654577 -12.874829 -36.868488 107.832764 102.329041
24 101.696655 -8.392275 -7.654577 -12.874833 -36.868492 107.832779 102.329041
[L_rear_hand02]
23 102.726799 -1.568258 5.773216 71.484581 71.816628 158.486160 102.900848
24 102.726799 -1.568258 5.773216 71.484634 71.816643 158.486176 102.900848
[L_rear_hand03]
23 104.552910 9.721220 -10.420293 -177.714203 -24.565960 -106.089035 105.519653
24 104.552910 9.721220 -10.420293 -177.714203 -24.565968 -106.089043 105.519653
